<svg width="41" height="40" viewBox="0 0 41 40" fill="none" xmlns="http://www.w3.org/2000/svg">
<rect x="0.5" width="40" height="40" rx="8" fill="url(#paint0_linear_2533_34)"/>
<path d="M15.7735 22.9298H18.9583C19.0762 22.5245 19.2339 22.132 19.429 21.7577H15.7735C15.6181 21.7577 15.469 21.696 15.3591 21.5861C15.2492 21.4762 15.1875 21.3271 15.1875 21.1717C15.1875 21.0163 15.2492 20.8672 15.3591 20.7573C15.469 20.6474 15.6181 20.5857 15.7735 20.5857H20.2137C20.5881 20.1393 21.0209 19.7453 21.5004 19.4143H15.7735C15.6181 19.4143 15.469 19.3526 15.3591 19.2427C15.2492 19.1328 15.1875 18.9837 15.1875 18.8283C15.1875 18.6729 15.2492 18.5238 15.3591 18.4139C15.469 18.304 15.6181 18.2423 15.7735 18.2423H21.6337C21.7254 18.2423 21.8157 18.2638 21.8976 18.3051C21.9794 18.3464 22.0504 18.4064 22.1049 18.4801C22.1593 18.5538 22.1957 18.6393 22.2112 18.7296C22.2266 18.82 22.2206 18.9127 22.1937 19.0003C22.9311 18.618 23.7359 18.3829 24.5631 18.3083V11.3667C24.5626 11.0043 24.4183 10.6569 24.162 10.4006C23.9057 10.1444 23.5582 10.0004 23.1958 10H11.8667C11.5044 10.0005 11.1571 10.1447 10.9009 10.4009C10.6447 10.6571 10.5005 11.0044 10.5 11.3667V26.2499C10.5004 26.6123 10.6444 26.9598 10.9006 27.2161C11.1569 27.4725 11.5043 27.6167 11.8667 27.6173H19.389C18.8418 26.5312 18.6146 25.312 18.7336 24.1018H15.7735C15.6181 24.1018 15.469 24.0401 15.3591 23.9302C15.2492 23.8203 15.1875 23.6712 15.1875 23.5158C15.1875 23.3604 15.2492 23.2113 15.3591 23.1014C15.469 22.9915 15.6181 22.9298 15.7735 22.9298ZM15.7735 13.5548H21.6337C21.7891 13.5548 21.9382 13.6165 22.0481 13.7264C22.158 13.8363 22.2197 13.9854 22.2197 14.1408C22.2197 14.2962 22.158 14.4453 22.0481 14.5552C21.9382 14.6651 21.7891 14.7268 21.6337 14.7268H15.7735C15.6181 14.7268 15.469 14.6651 15.3591 14.5552C15.2492 14.4453 15.1875 14.2962 15.1875 14.1408C15.1875 13.9854 15.2492 13.8363 15.3591 13.7264C15.469 13.6165 15.6181 13.5548 15.7735 13.5548ZM15.7735 15.8989H21.6337C21.7891 15.8989 21.9382 15.9606 22.0481 16.0705C22.158 16.1804 22.2197 16.3295 22.2197 16.4849C22.2197 16.6403 22.158 16.7894 22.0481 16.8993C21.9382 17.0092 21.7891 17.0709 21.6337 17.0709H15.7735C15.6181 17.0709 15.469 17.0092 15.3591 16.8993C15.2492 16.7894 15.1875 16.6403 15.1875 16.4849C15.1875 16.3295 15.2492 16.1804 15.3591 16.0705C15.469 15.9606 15.6181 15.8989 15.7735 15.8989ZM13.4294 24.0991C13.3135 24.0991 13.2002 24.0648 13.1039 24.0004C13.0075 23.936 12.9324 23.8445 12.888 23.7374C12.8437 23.6303 12.8321 23.5125 12.8547 23.3988C12.8773 23.2851 12.9331 23.1807 13.0151 23.0987C13.097 23.0168 13.2014 22.961 13.3151 22.9384C13.4288 22.9157 13.5466 22.9274 13.6537 22.9717C13.7608 23.0161 13.8523 23.0912 13.9167 23.1875C13.9811 23.2839 14.0154 23.3972 14.0154 23.5131C14.0158 23.5903 14.0009 23.6668 13.9716 23.7382C13.9423 23.8096 13.8992 23.8745 13.8448 23.9292C13.7903 23.9839 13.7256 24.0273 13.6543 24.0569C13.583 24.0866 13.5066 24.1018 13.4294 24.1018V24.0991ZM13.4294 21.7551C13.3135 21.7551 13.2002 21.7207 13.1039 21.6563C13.0075 21.5919 12.9324 21.5004 12.888 21.3933C12.8437 21.2862 12.8321 21.1684 12.8547 21.0547C12.8773 20.941 12.9331 20.8366 13.0151 20.7547C13.097 20.6727 13.2014 20.6169 13.3151 20.5943C13.4288 20.5717 13.5466 20.5833 13.6537 20.6276C13.7608 20.672 13.8523 20.7471 13.9167 20.8435C13.9811 20.9398 14.0154 21.0531 14.0154 21.169C14.0158 21.2462 14.0009 21.3227 13.9716 21.3941C13.9423 21.4655 13.8992 21.5304 13.8448 21.5851C13.7903 21.6398 13.7256 21.6832 13.6543 21.7129C13.583 21.7425 13.5066 21.7577 13.4294 21.7577V21.7551ZM13.4294 19.411C13.3135 19.411 13.2002 19.3766 13.1039 19.3122C13.0075 19.2478 12.9324 19.1563 12.888 19.0492C12.8437 18.9421 12.8321 18.8243 12.8547 18.7106C12.8773 18.597 12.9331 18.4925 13.0151 18.4106C13.097 18.3286 13.2014 18.2728 13.3151 18.2502C13.4288 18.2276 13.5466 18.2392 13.6537 18.2836C13.7608 18.3279 13.8523 18.403 13.9167 18.4994C13.9811 18.5958 14.0154 18.7091 14.0154 18.825C14.0159 18.9022 14.0011 18.9788 13.9718 19.0502C13.9425 19.1217 13.8995 19.1867 13.845 19.2415C13.7905 19.2963 13.7258 19.3397 13.6545 19.3694C13.5831 19.399 13.5067 19.4143 13.4294 19.4143V19.411ZM13.4294 17.0669C13.3135 17.0669 13.2002 17.0325 13.1039 16.9681C13.0075 16.9037 12.9324 16.8122 12.888 16.7051C12.8437 16.5981 12.8321 16.4802 12.8547 16.3666C12.8773 16.2529 12.9331 16.1485 13.0151 16.0665C13.097 15.9845 13.2014 15.9287 13.3151 15.9061C13.4288 15.8835 13.5466 15.8951 13.6537 15.9395C13.7608 15.9838 13.8523 16.0589 13.9167 16.1553C13.9811 16.2517 14.0154 16.365 14.0154 16.4809C14.0154 16.5578 14.0003 16.634 13.9708 16.7051C13.9414 16.7762 13.8982 16.8408 13.8438 16.8953C13.7894 16.9497 13.7248 16.9928 13.6537 17.0223C13.5826 17.0517 13.5064 17.0669 13.4294 17.0669ZM13.4294 14.7228C13.3135 14.7228 13.2002 14.6885 13.1039 14.6241C13.0075 14.5597 12.9324 14.4681 12.888 14.3611C12.8437 14.254 12.8321 14.1362 12.8547 14.0225C12.8773 13.9088 12.9331 13.8044 13.0151 13.7224C13.097 13.6405 13.2014 13.5847 13.3151 13.562C13.4288 13.5394 13.5466 13.551 13.6537 13.5954C13.7608 13.6397 13.8523 13.7149 13.9167 13.8112C13.9811 13.9076 14.0154 14.0209 14.0154 14.1368C14.0159 14.214 14.0011 14.2906 13.9718 14.3621C13.9425 14.4336 13.8995 14.4986 13.845 14.5533C13.7905 14.6081 13.7258 14.6516 13.6545 14.6812C13.5831 14.7109 13.5067 14.7262 13.4294 14.7262V14.7228Z" fill="white"/>
<path d="M25.2265 19.4531C24.1835 19.4531 23.1639 19.7624 22.2967 20.3419C21.4295 20.9213 20.7536 21.7449 20.3544 22.7086C19.9553 23.6722 19.8509 24.7325 20.0543 25.7554C20.2578 26.7784 20.7601 27.7181 21.4976 28.4556C22.2351 29.1931 23.1747 29.6953 24.1977 29.8988C25.2207 30.1023 26.281 29.9979 27.2446 29.5987C28.2082 29.1996 29.0318 28.5237 29.6113 27.6564C30.1907 26.7892 30.5 25.7696 30.5 24.7266C30.4984 23.3285 29.9423 21.9881 28.9537 20.9995C27.9651 20.0108 26.6246 19.4547 25.2265 19.4531ZM25.8125 24.688C25.8125 24.8434 25.7508 24.9924 25.6409 25.1023C25.531 25.2122 25.3819 25.274 25.2265 25.274H23.4684C23.313 25.274 23.164 25.2122 23.0541 25.1023C22.9442 24.9924 22.8824 24.8434 22.8824 24.688C22.8824 24.5325 22.9442 24.3835 23.0541 24.2736C23.164 24.1637 23.313 24.102 23.4684 24.102H24.6405V22.3439C24.6405 22.1885 24.7022 22.0394 24.8121 21.9295C24.922 21.8196 25.0711 21.7579 25.2265 21.7579C25.3819 21.7579 25.531 21.8196 25.6409 21.9295C25.7508 22.0394 25.8125 22.1885 25.8125 22.3439V24.688Z" fill="white"/>
<defs>
<linearGradient id="paint0_linear_2533_34" x1="20.5" y1="0" x2="20.5" y2="40" gradientUnits="userSpaceOnUse">
<stop stop-color="#F44336"/>
<stop offset="1" stop-color="#FF4E41"/>
</linearGradient>
</defs>
</svg>
