<svg width="20" height="20" viewBox="0 0 20 20" fill="none" xmlns="http://www.w3.org/2000/svg">
<path d="M16.139 1.53344H15.393V0.783441C15.393 0.576307 15.3107 0.377657 15.1643 0.231191C15.0178 0.0847251 14.8191 0.00244143 14.612 0.00244143C14.4049 0.00244143 14.2062 0.0847251 14.0597 0.231191C13.9133 0.377657 13.831 0.576307 13.831 0.783441V1.53344H6.169V0.783441C6.169 0.680879 6.1488 0.579321 6.10955 0.484566C6.0703 0.38981 6.01277 0.303714 5.94025 0.231191C5.86773 0.158668 5.78163 0.10114 5.68688 0.0618915C5.59212 0.0226426 5.49056 0.00244141 5.388 0.00244141C5.28544 0.00244141 5.18388 0.0226426 5.08912 0.0618915C4.99437 0.10114 4.90827 0.158668 4.83575 0.231191C4.76323 0.303714 4.7057 0.38981 4.66645 0.484566C4.6272 0.579321 4.607 0.680879 4.607 0.783441V1.53344H3.861C2.83714 1.53503 1.8557 1.9426 1.13191 2.66676C0.408117 3.39093 0.00105784 4.37258 0 5.39644L0 16.1344C0.00105784 17.1583 0.408117 18.14 1.13191 18.8641C1.8557 19.5883 2.83714 19.9959 3.861 19.9974H16.139C17.1629 19.9959 18.1443 19.5883 18.8681 18.8641C19.5919 18.14 19.9989 17.1583 20 16.1344V5.39644C19.9989 4.37258 19.5919 3.39093 18.8681 2.66676C18.1443 1.9426 17.1629 1.53503 16.139 1.53344ZM3.861 3.09644H4.607V4.61944C4.607 4.722 4.6272 4.82356 4.66645 4.91832C4.7057 5.01307 4.76323 5.09917 4.83575 5.17169C4.90827 5.24421 4.99437 5.30174 5.08912 5.34099C5.18388 5.38024 5.28544 5.40044 5.388 5.40044C5.49056 5.40044 5.59212 5.38024 5.68688 5.34099C5.78163 5.30174 5.86773 5.24421 5.94025 5.17169C6.01277 5.09917 6.0703 5.01307 6.10955 4.91832C6.1488 4.82356 6.169 4.722 6.169 4.61944V3.09644H13.831V4.61944C13.831 4.82658 13.9133 5.02523 14.0597 5.17169C14.2062 5.31816 14.4049 5.40044 14.612 5.40044C14.8191 5.40044 15.0178 5.31816 15.1643 5.17169C15.3107 5.02523 15.393 4.82658 15.393 4.61944V3.09644H16.139C16.749 3.09644 17.334 3.33876 17.7653 3.7701C18.1967 4.20143 18.439 4.78644 18.439 5.39644V6.14344H1.562V5.39644C1.562 4.78644 1.80432 4.20143 2.23565 3.7701C2.66699 3.33876 3.251 3.09644 3.861 3.09644ZM16.139 18.4344H3.861C3.55896 18.4344 3.25988 18.375 2.98083 18.2594C2.70178 18.1438 2.44823 17.9744 2.23465 17.7608C2.02108 17.5472 1.85166 17.2937 1.73608 17.0146C1.62049 16.7356 1.561 16.4365 1.561 16.1344V7.70544H18.438V16.1344C18.438 16.7444 18.1957 17.3295 17.7643 17.7608C17.333 18.1921 16.749 18.4344 16.139 18.4344ZM6.937 10.7834C6.937 10.9906 6.85472 11.1892 6.70825 11.3357C6.56178 11.4822 6.36313 11.5644 6.156 11.5644H4.62C4.41287 11.5644 4.21422 11.4822 4.06775 11.3357C3.92128 11.1892 3.839 10.9906 3.839 10.7834C3.839 10.5763 3.92128 10.3777 4.06775 10.2312C4.21422 10.0847 4.41287 10.0024 4.62 10.0024H6.156C6.36313 10.0024 6.56178 10.0847 6.70825 10.2312C6.85472 10.3777 6.937 10.5763 6.937 10.7834ZM16.161 10.7834C16.161 10.9906 16.0787 11.1892 15.9323 11.3357C15.7858 11.4822 15.5871 11.5644 15.38 11.5644H13.844C13.6369 11.5644 13.4382 11.4822 13.2917 11.3357C13.1453 11.1892 13.063 10.9906 13.063 10.7834C13.063 10.5763 13.1453 10.3777 13.2917 10.2312C13.4382 10.0847 13.6369 10.0024 13.844 10.0024H15.38C15.5871 10.0024 15.7858 10.0847 15.9323 10.2312C16.0787 10.3777 16.161 10.5763 16.161 10.7834ZM11.545 10.7834C11.545 10.9906 11.4627 11.1892 11.3163 11.3357C11.1698 11.4822 10.9711 11.5644 10.764 11.5644H9.228C9.02087 11.5644 8.82222 11.4822 8.67575 11.3357C8.52928 11.1892 8.447 10.9906 8.447 10.7834C8.447 10.5763 8.52928 10.3777 8.67575 10.2312C8.82222 10.0847 9.02087 10.0024 9.228 10.0024H10.764C10.971 10.0027 11.1694 10.0851 11.3156 10.2315C11.4619 10.378 11.544 10.5765 11.544 10.7834H11.545ZM6.937 15.3834C6.937 15.5906 6.85472 15.7892 6.70825 15.9357C6.56178 16.0822 6.36313 16.1644 6.156 16.1644H4.62C4.41287 16.1644 4.21422 16.0822 4.06775 15.9357C3.92128 15.7892 3.839 15.5906 3.839 15.3834C3.839 15.1763 3.92128 14.9777 4.06775 14.8312C4.21422 14.6847 4.41287 14.6024 4.62 14.6024H6.156C6.25856 14.6024 6.36012 14.6226 6.45488 14.6619C6.54963 14.7011 6.63573 14.7587 6.70825 14.8312C6.78077 14.9037 6.8383 14.9898 6.87755 15.0846C6.9168 15.1793 6.937 15.2809 6.937 15.3834ZM16.161 15.3834C16.161 15.5906 16.0787 15.7892 15.9323 15.9357C15.7858 16.0822 15.5871 16.1644 15.38 16.1644H13.844C13.6369 16.1644 13.4382 16.0822 13.2917 15.9357C13.1453 15.7892 13.063 15.5906 13.063 15.3834C13.063 15.1763 13.1453 14.9777 13.2917 14.8312C13.4382 14.6847 13.6369 14.6024 13.844 14.6024H15.38C15.5871 14.6024 15.7858 14.6847 15.9323 14.8312C16.0787 14.9777 16.161 15.1763 16.161 15.3834ZM11.545 15.3834C11.545 15.5906 11.4627 15.7892 11.3163 15.9357C11.1698 16.0822 10.9711 16.1644 10.764 16.1644H9.228C9.02087 16.1644 8.82222 16.0822 8.67575 15.9357C8.52928 15.7892 8.447 15.5906 8.447 15.3834C8.447 15.1763 8.52928 14.9777 8.67575 14.8312C8.82222 14.6847 9.02087 14.6024 9.228 14.6024H10.764C10.971 14.6027 11.1694 14.6851 11.3156 14.8315C11.4619 14.978 11.544 15.1765 11.544 15.3834H11.545Z" fill="#9F140A"/>
</svg>
