<svg width="40" height="40" viewBox="0 0 40 40" fill="none" xmlns="http://www.w3.org/2000/svg">
<rect width="40" height="40" rx="8" fill="url(#paint0_linear_250_13536)"/>
<g clip-path="url(#clip0_250_13536)">
<path d="M20.709 7.8999H19.291C18.8991 7.8999 18.582 8.21701 18.582 8.60889V11.4921H16.7486C16.462 11.4921 16.203 11.6645 16.0936 11.9297C15.9836 12.1948 16.0445 12.4995 16.2474 12.7024L19.4987 15.9537C19.6372 16.0922 19.8186 16.1615 20 16.1615C20.1814 16.1615 20.3628 16.0922 20.5012 15.9537L23.7526 12.7024C23.9554 12.4995 24.0164 12.1949 23.9063 11.9297C23.7969 11.6645 23.5379 11.4921 23.2513 11.4921H21.4179V8.60889C21.4179 8.21701 21.1008 7.8999 20.709 7.8999Z" fill="white"/>
<path d="M31.9806 19.5182L29.6597 17.5427L21.1047 20.3788L22.825 22.9593C23.0023 23.2253 23.3358 23.3397 23.6391 23.2386L31.6149 20.5841C32.0584 20.4362 32.24 19.9071 31.9806 19.5182Z" fill="white"/>
<path d="M8.01942 19.5182C7.76002 19.9072 7.94162 20.4362 8.38516 20.584L16.3609 23.2386C16.6643 23.3397 16.9977 23.2252 17.1751 22.9593L18.8953 20.3787L10.3404 17.5427L8.01942 19.5182Z" fill="white"/>
<path d="M29.2641 28.5551V22.867L24.0891 24.5836C23.1651 24.8905 22.1727 24.5375 21.6451 23.7458L20.7092 22.3416L20.709 32.1001L28.7795 29.2274C29.0689 29.1309 29.2641 28.8602 29.2641 28.5551Z" fill="white"/>
<path d="M18.3549 23.7457C17.8307 24.5325 16.8404 24.8915 15.9123 24.5841L10.7359 22.8667V28.5551C10.7359 28.8601 10.9311 29.1308 11.2205 29.2273L19.291 32.1V22.3416L18.3549 23.7457Z" fill="white"/>
<path d="M20 19.2529L28.5549 16.4168L23.6593 14.8008L21.5038 16.9563C21.1023 17.3579 20.5677 17.5794 20 17.5794C19.4323 17.5794 18.8978 17.3579 18.4962 16.9563L16.3407 14.8008L11.4451 16.4168L20 19.2529Z" fill="white"/>
</g>
<defs>
<linearGradient id="paint0_linear_250_13536" x1="20" y1="0" x2="20" y2="40" gradientUnits="userSpaceOnUse">
<stop stop-color="#F44336"/>
<stop offset="1" stop-color="#FF4E41"/>
</linearGradient>
<clipPath id="clip0_250_13536">
<rect width="22" height="22" fill="white" transform="translate(9 9)"/>
</clipPath>
</defs>
</svg>
