<svg width="24" height="24" viewBox="0 0 24 24" fill="none" xmlns="http://www.w3.org/2000/svg">
<rect width="24" height="24" rx="12" fill="url(#paint0_linear_501_3925)"/>
<path d="M16.6668 9.12592C16.4967 9.1197 16.3311 9.18115 16.2063 9.2968C16.0815 9.41245 16.0076 9.57288 16.0008 9.74292V16.6479C15.9676 16.972 15.8089 17.2702 15.5587 17.4787C15.3084 17.6873 14.9865 17.7896 14.6618 17.7639H9.3458C9.02107 17.7896 8.69916 17.6873 8.44893 17.4787C8.1987 17.2702 8.04001 16.972 8.0068 16.6479V9.74292C8.00004 9.57288 7.92614 9.41245 7.8013 9.2968C7.67646 9.18115 7.51087 9.1197 7.3408 9.12592C7.17074 9.1197 7.00515 9.18115 6.88031 9.2968C6.75547 9.41245 6.68157 9.57288 6.6748 9.74292V16.6479C6.72132 17.3122 7.02778 17.9315 7.52777 18.3714C8.02775 18.8113 8.68096 19.0364 9.3458 18.9979H14.6618C15.3266 19.0364 15.9799 18.8113 16.4798 18.3714C16.9798 17.9315 17.2863 17.3122 17.3328 16.6479V9.74292C17.326 9.57288 17.2521 9.41245 17.1273 9.2968C17.0025 9.18115 16.8369 9.1197 16.6668 9.12592Z" fill="white"/>
<path d="M17.337 7.013H14.671V5.671C14.6713 5.58315 14.6542 5.4961 14.6208 5.41483C14.5875 5.33356 14.5384 5.25967 14.4765 5.19736C14.4145 5.13505 14.3409 5.08555 14.2599 5.05169C14.1788 5.01783 14.0919 5.00026 14.004 5H10.004C9.91615 5.00026 9.8292 5.01783 9.74814 5.05169C9.66707 5.08555 9.59347 5.13505 9.53153 5.19736C9.46959 5.25967 9.42054 5.33356 9.38716 5.41483C9.35378 5.4961 9.33674 5.58315 9.337 5.671V7.013H6.671C6.49304 7.013 6.32237 7.08369 6.19653 7.20953C6.07069 7.33537 6 7.50604 6 7.684C6 7.86196 6.07069 8.03263 6.19653 8.15847C6.32237 8.28431 6.49304 8.355 6.671 8.355H17.337C17.515 8.355 17.6856 8.28431 17.8115 8.15847C17.9373 8.03263 18.008 7.86196 18.008 7.684C18.008 7.50604 17.9373 7.33537 17.8115 7.20953C17.6856 7.08369 17.515 7.013 17.337 7.013ZM10.67 7.013V6.342H13.337V7.013H10.67Z" fill="white"/>
<path d="M11.343 15.267V10.567C11.3426 10.389 11.2715 10.2185 11.1454 10.0929C11.0193 9.96738 10.8484 9.89706 10.6705 9.89746C10.4925 9.89786 10.322 9.96894 10.1964 10.0951C10.0709 10.2212 10.0006 10.392 10.001 10.57V15.27C10.001 15.4479 10.0717 15.6186 10.1975 15.7444C10.3233 15.8703 10.494 15.941 10.672 15.941C10.8499 15.941 11.0206 15.8703 11.1464 15.7444C11.2723 15.6186 11.343 15.4479 11.343 15.27V15.267Z" fill="white"/>
<path d="M14.007 15.267V10.567C14.007 10.389 13.9363 10.2184 13.8105 10.0925C13.6847 9.96669 13.514 9.896 13.336 9.896C13.1581 9.896 12.9874 9.96669 12.8616 10.0925C12.7357 10.2184 12.665 10.389 12.665 10.567V15.267C12.665 15.445 12.7357 15.6156 12.8616 15.7415C12.9874 15.8673 13.1581 15.938 13.336 15.938C13.514 15.938 13.6847 15.8673 13.8105 15.7415C13.9363 15.6156 14.007 15.445 14.007 15.267Z" fill="white"/>
<defs>
<linearGradient id="paint0_linear_501_3925" x1="12" y1="0" x2="12" y2="24" gradientUnits="userSpaceOnUse">
<stop stop-color="#F44336"/>
<stop offset="1" stop-color="#FF4E41"/>
</linearGradient>
</defs>
</svg>
