<svg width="24" height="24" viewBox="0 0 24 24" fill="none" xmlns="http://www.w3.org/2000/svg">
<rect width="24" height="24" rx="12" fill="url(#paint0_linear_501_3920)"/>
<path d="M18.4219 5.48082L18.4049 5.46482C18.2328 5.30753 18.0315 5.18569 17.8123 5.10624C17.5931 5.02679 17.3604 4.99131 17.1275 5.0018C16.8946 5.01229 16.6661 5.06856 16.4549 5.1674C16.2438 5.26623 16.0542 5.40569 15.8969 5.57782L9.55492 12.5238C9.49707 12.587 9.45311 12.6616 9.42591 12.7428L8.67992 14.9788C8.63733 15.1065 8.62566 15.2425 8.64588 15.3755C8.6661 15.5086 8.71763 15.6349 8.79623 15.7442C8.87483 15.8535 8.97825 15.9425 9.09798 16.004C9.21771 16.0654 9.35033 16.0976 9.48492 16.0978C9.60235 16.0977 9.71847 16.0732 9.82592 16.0258L11.9859 15.0808C12.0645 15.0465 12.1351 14.9961 12.1929 14.9328L18.5369 7.98782C18.8535 7.63983 19.0192 7.1805 18.9976 6.71054C18.9761 6.24059 18.769 5.79835 18.4219 5.48082ZM10.1089 14.5658L10.5469 13.2538L10.5839 13.2138L11.4139 13.9718L11.3769 14.0118L10.1089 14.5658ZM17.6319 7.16582L12.2389 13.0658L11.4089 12.3078L16.8019 6.40781C16.9003 6.30014 17.0375 6.23597 17.1832 6.2294C17.3289 6.22284 17.4712 6.27442 17.5789 6.37282L17.5959 6.38882C17.7026 6.48711 17.7662 6.62351 17.7729 6.76842C17.7797 6.91332 17.729 7.05504 17.6319 7.16282V7.16582Z" fill="white"/>
<path d="M17.201 10.5698C17.0419 10.5698 16.8893 10.633 16.7767 10.7455C16.6642 10.8581 16.601 11.0107 16.601 11.1698V16.2698C16.5994 16.6759 16.4368 17.0649 16.1489 17.3513C15.8609 17.6378 15.4712 17.7983 15.065 17.7978H7.743C7.33685 17.7983 6.94706 17.6378 6.65912 17.3513C6.37118 17.0649 6.20859 16.6759 6.207 16.2698V9.0528C6.20726 8.85135 6.2472 8.65193 6.32453 8.46592C6.40187 8.2799 6.51508 8.11094 6.65771 7.96868C6.80034 7.82642 6.9696 7.71365 7.15581 7.6368C7.34203 7.55996 7.54155 7.52054 7.743 7.5208H13.043C13.2021 7.5208 13.3547 7.45759 13.4673 7.34506C13.5798 7.23254 13.643 7.07993 13.643 6.9208C13.643 6.76167 13.5798 6.60906 13.4673 6.49654C13.3547 6.38402 13.2021 6.3208 13.043 6.3208H7.743C7.01717 6.32 6.32068 6.60723 5.80641 7.11944C5.29214 7.63165 5.00212 8.32697 5 9.0528V16.2758C5.00397 17.0004 5.29481 17.6939 5.80887 18.2046C6.32294 18.7153 7.01838 19.0016 7.743 19.0008H15.061C15.7865 19.0016 16.4827 18.7146 16.9969 18.2029C17.5111 17.6911 17.8014 16.9963 17.804 16.2708V11.1708C17.8041 11.0917 17.7886 11.0133 17.7583 10.9402C17.728 10.8671 17.6836 10.8007 17.6276 10.7448C17.5715 10.689 17.505 10.6447 17.4318 10.6147C17.3586 10.5847 17.2801 10.5694 17.201 10.5698Z" fill="white"/>
<defs>
<linearGradient id="paint0_linear_501_3920" x1="12" y1="0" x2="12" y2="24" gradientUnits="userSpaceOnUse">
<stop stop-color="#F44336"/>
<stop offset="1" stop-color="#FF4E41"/>
</linearGradient>
</defs>
</svg>
