<svg width="20" height="20" viewBox="0 0 20 20" fill="none" xmlns="http://www.w3.org/2000/svg">
<path d="M18.5936 5.78168L17.5253 4.36024C15.7778 2.03536 13.0071 0.59375 9.9999 0.59375C5.57461 0.59375 1.80462 3.60097 0.826054 7.90957L18.5936 5.78168ZM18.5936 5.78168V4.0035M18.5936 5.78168V4.0035M18.5936 4.0035V3C18.5936 2.77553 18.7753 2.59375 18.9999 2.59375C19.2245 2.59375 19.4061 2.77553 19.4061 3V7C19.4061 7.22447 19.2245 7.40625 18.9999 7.40625H14.9999C14.7753 7.40625 14.5936 7.22447 14.5936 7C14.5936 6.77553 14.7753 6.59375 14.9999 6.59375H16.9142H17.9452L17.4277 5.702C15.9116 3.0892 13.1016 1.40625 9.9999 1.40625C5.96169 1.40625 2.51186 4.15598 1.61914 8.09C1.57656 8.27717 1.40899 8.40625 1.2235 8.40625C1.19294 8.40625 1.16297 8.40305 1.13255 8.39613L1.13228 8.39607M18.5936 4.0035L1.13228 8.39607M1.13228 8.39607C0.914165 8.34658 0.776497 8.12872 0.826005 7.90979L1.13228 8.39607Z" fill="white" stroke="white" stroke-width="1.1875"/>
<path d="M2.47644 15.6205L1.40625 14.1815V15.9749V17.0001C1.40625 17.2245 1.22459 17.4063 1 17.4063C0.775412 17.4063 0.59375 17.2245 0.59375 17.0001V13.0001C0.59375 12.7756 0.775412 12.5938 1 12.5938H5C5.22459 12.5938 5.40625 12.7756 5.40625 13.0001C5.40625 13.2245 5.22459 13.4063 5 13.4063H3.0919H2.06256L2.57793 14.2973C4.11244 16.9504 6.89904 18.5938 10 18.5938C14.0383 18.5938 17.4882 15.8439 18.3807 11.9097L18.3808 11.9096C18.431 11.6878 18.6459 11.5528 18.8655 11.6035L18.8676 11.604C19.0857 11.6535 19.2234 11.8713 19.1739 12.0903C18.1954 16.399 14.4254 19.4063 10 19.4063C6.97927 19.4063 4.23321 17.9828 2.47644 15.6205Z" fill="white" stroke="white" stroke-width="1.1875"/>
</svg>
