<svg width="40" height="40" viewBox="0 0 40 40" fill="none" xmlns="http://www.w3.org/2000/svg">
<rect width="40" height="40" rx="8" fill="url(#paint0_linear_545_658)"/>
<path d="M15 9.9999C14.8105 9.9999 14.6287 10.0752 14.4947 10.2092C14.3607 10.3432 14.2854 10.525 14.2854 10.7145V11.4291H12.8569C12.1002 11.4318 11.3751 11.7335 10.84 12.2685C10.3048 12.8036 10.0028 13.5285 10 14.2853V27.1422C10.0024 27.8992 10.3042 28.6246 10.8394 29.1599C11.3746 29.6953 12.0999 29.9973 12.8569 29.9999H27.1431C27.9 29.9973 28.6251 29.6954 29.1603 29.1602C29.6955 28.625 29.9974 27.8999 30 27.143V14.2853C29.9974 13.5284 29.6955 12.8033 29.1603 12.268C28.6251 11.7328 27.9 11.431 27.1431 11.4284H25.7146V10.7137C25.7144 10.5244 25.639 10.3428 25.505 10.2089C25.371 10.0751 25.1894 9.9999 25 9.9999C24.8105 9.9999 24.6287 10.0752 24.4947 10.2092C24.3607 10.3432 24.2854 10.525 24.2854 10.7145V11.4291H20.7146V10.7145C20.7146 10.525 20.6393 10.3432 20.5053 10.2092C20.3713 10.0752 20.1895 9.9999 20 9.9999C19.8105 9.9999 19.6287 10.0752 19.4947 10.2092C19.3607 10.3432 19.2854 10.525 19.2854 10.7145V11.4291H15.7146V10.7145C15.7146 10.525 15.6393 10.3432 15.5053 10.2092C15.3713 10.0752 15.1895 9.9999 15 9.9999ZM12.8569 12.8568H14.2854V13.5714C14.2854 13.761 14.3607 13.9427 14.4947 14.0767C14.6287 14.2108 14.8105 14.2861 15 14.2861C15.1895 14.2861 15.3713 14.2108 15.5053 14.0767C15.6393 13.9427 15.7146 13.761 15.7146 13.5714V12.8568H19.2862V13.5714C19.2862 13.761 19.3614 13.9427 19.4955 14.0767C19.6295 14.2108 19.8112 14.2861 20.0008 14.2861C20.1903 14.2861 20.3721 14.2108 20.5061 14.0767C20.6401 13.9427 20.7154 13.761 20.7154 13.5714V12.8568H24.2869V13.5714C24.2869 13.761 24.3622 13.9427 24.4962 14.0767C24.6302 14.2108 24.812 14.2861 25.0015 14.2861C25.1911 14.2861 25.3728 14.2108 25.5068 14.0767C25.6409 13.9427 25.7162 13.761 25.7162 13.5714V12.8568H27.1446C27.3329 12.8543 27.5198 12.8896 27.6942 12.9605C27.8686 13.0314 28.0271 13.1365 28.1602 13.2697C28.2934 13.4028 28.3985 13.5613 28.4694 13.7357C28.5403 13.9101 28.5756 14.097 28.5731 14.2853V15.7137H11.4285V14.2853C11.426 14.097 11.4612 13.9101 11.5321 13.7357C11.603 13.5613 11.7082 13.4028 11.8413 13.2697C11.9745 13.1365 12.1329 13.0314 12.3074 12.9605C12.4818 12.8896 12.6686 12.8543 12.8569 12.8568ZM17.6477 19.4945L20 21.8461L22.3523 19.4937C22.4863 19.3599 22.6679 19.2848 22.8573 19.2848C23.0467 19.2848 23.2283 19.3599 23.3623 19.4937C23.4961 19.6277 23.5713 19.8094 23.5713 19.9987C23.5713 20.1881 23.4961 20.3698 23.3623 20.5037L21.01 22.8561L23.3623 25.2084C23.4961 25.3424 23.5713 25.524 23.5713 25.7134C23.5713 25.9027 23.4961 26.0844 23.3623 26.2184C23.2283 26.3522 23.0467 26.4274 22.8573 26.4274C22.6679 26.4274 22.4863 26.3522 22.3523 26.2184L20 23.8668L17.6477 26.2191C17.5137 26.353 17.3321 26.4281 17.1427 26.4281C16.9533 26.4281 16.7717 26.353 16.6377 26.2191C16.5039 26.0851 16.4287 25.9035 16.4287 25.7141C16.4287 25.5248 16.5039 25.3431 16.6377 25.2091L18.99 22.8568L16.6377 20.5045C16.5039 20.3705 16.4287 20.1889 16.4287 19.9995C16.4287 19.8101 16.5039 19.6285 16.6377 19.4945C16.702 19.4248 16.7801 19.3691 16.867 19.331C16.9539 19.2929 17.0478 19.2733 17.1427 19.2733C17.2376 19.2733 17.3314 19.2929 17.4184 19.331C17.5053 19.3691 17.5834 19.4248 17.6477 19.4945Z" fill="white"/>
<defs>
<linearGradient id="paint0_linear_545_658" x1="20" y1="0" x2="20" y2="40" gradientUnits="userSpaceOnUse">
<stop stop-color="#F44336"/>
<stop offset="1" stop-color="#FF4E41"/>
</linearGradient>
</defs>
</svg>
