<svg width="30" height="30" viewBox="0 0 30 30" fill="none" xmlns="http://www.w3.org/2000/svg">
<path d="M8 18H14V27.75L8 30V18Z" fill="url(#paint0_linear_2152_8375)"/>
<path d="M22 18H16V27.75L22 30V18Z" fill="url(#paint1_linear_2152_8375)"/>
<path d="M13.8566 0.551157C14.4418 -0.183719 15.5582 -0.183719 16.1434 0.551157L18.2791 3.23348C18.5928 3.62734 19.087 3.83207 19.5873 3.77532L22.9942 3.38884C23.9276 3.28296 24.717 4.07244 24.6112 5.00583L24.2247 8.41273C24.1679 8.91299 24.3727 9.40724 24.7665 9.72085L27.4488 11.8566C28.1837 12.4418 28.1837 13.5582 27.4488 14.1434L24.7665 16.2791C24.3727 16.5928 24.1679 17.087 24.2247 17.5873L24.6112 20.9942C24.717 21.9276 23.9276 22.717 22.9942 22.6112L19.5873 22.2247C19.087 22.1679 18.5928 22.3727 18.2791 22.7665L16.1434 25.4488C15.5582 26.1837 14.4418 26.1837 13.8566 25.4488L11.7209 22.7665C11.4072 22.3727 10.913 22.1679 10.4127 22.2247L7.00583 22.6112C6.07244 22.717 5.28296 21.9276 5.38884 20.9942L5.77532 17.5873C5.83207 17.087 5.62734 16.5928 5.23348 16.2791L2.55116 14.1434C1.81628 13.5582 1.81628 12.4418 2.55116 11.8566L5.23348 9.72085C5.62734 9.40724 5.83207 8.91299 5.77532 8.41273L5.38884 5.00583C5.28296 4.07244 6.07244 3.28296 7.00583 3.38884L10.4127 3.77532C10.913 3.83207 11.4072 3.62734 11.7209 3.23348L13.8566 0.551157Z" fill="url(#paint2_linear_2152_8375)"/>
<path fill-rule="evenodd" clip-rule="evenodd" d="M17.1358 4.14388L15 1.46156L12.8642 4.14388C12.237 4.93161 11.2485 5.34106 10.248 5.22757L6.84109 4.84109L7.22757 8.24799C7.34106 9.24851 6.93161 10.237 6.14388 10.8642L3.46156 13L6.14388 15.1358C6.93161 15.763 7.34106 16.7515 7.22757 17.752L6.84109 21.1589L10.248 20.7724C11.2485 20.6589 12.237 21.0684 12.8642 21.8561L15 24.5384L17.1358 21.8561C17.763 21.0684 18.7515 20.6589 19.752 20.7724L23.1589 21.1589L22.7724 17.752C22.6589 16.7515 23.0684 15.763 23.8561 15.1358L26.5384 13L23.8561 10.8642C23.0684 10.237 22.6589 9.24851 22.7724 8.24799L23.1589 4.84109L19.752 5.22757C18.7515 5.34106 17.763 4.93161 17.1358 4.14388ZM16.1434 0.551157C15.5582 -0.183719 14.4418 -0.183719 13.8566 0.551157L11.7209 3.23348C11.4072 3.62734 10.913 3.83207 10.4127 3.77532L7.00583 3.38884C6.07244 3.28296 5.28296 4.07244 5.38884 5.00583L5.77532 8.41273C5.83207 8.91299 5.62734 9.40724 5.23348 9.72085L2.55116 11.8566C1.81628 12.4418 1.81628 13.5582 2.55116 14.1434L5.23348 16.2791C5.62734 16.5928 5.83207 17.087 5.77532 17.5873L5.38884 20.9942C5.28296 21.9276 6.07244 22.717 7.00583 22.6112L10.4127 22.2247C10.913 22.1679 11.4072 22.3727 11.7209 22.7665L13.8566 25.4488C14.4418 26.1837 15.5582 26.1837 16.1434 25.4488L18.2791 22.7665C18.5928 22.3727 19.087 22.1679 19.5873 22.2247L22.9942 22.6112C23.9276 22.717 24.717 21.9276 24.6112 20.9942L24.2247 17.5873C24.1679 17.087 24.3727 16.5928 24.7665 16.2791L27.4488 14.1434C28.1837 13.5582 28.1837 12.4418 27.4488 11.8566L24.7665 9.72085C24.3727 9.40724 24.1679 8.91299 24.2247 8.41273L24.6112 5.00583C24.717 4.07244 23.9276 3.28296 22.9942 3.38884L19.5873 3.77532C19.087 3.83207 18.5928 3.62734 18.2791 3.23348L16.1434 0.551157Z" fill="url(#paint3_linear_2152_8375)"/>
<g filter="url(#filter0_d_2152_8375)">
<path d="M15.052 17.8C14.7907 17.8 14.576 17.7207 14.408 17.562C14.24 17.394 14.156 17.1887 14.156 16.946V9.89L14.352 10.198L13.33 10.954C13.1993 11.0567 13.036 11.108 12.84 11.108C12.616 11.108 12.42 11.024 12.252 10.856C12.084 10.688 12 10.4873 12 10.254C12 9.95533 12.1447 9.71267 12.434 9.526L14.45 8.182C14.5433 8.11667 14.646 8.07 14.758 8.042C14.8793 8.014 14.9913 8 15.094 8C15.3647 8 15.5793 8.084 15.738 8.252C15.8967 8.41067 15.976 8.61133 15.976 8.854V16.946C15.976 17.1887 15.8873 17.394 15.71 17.562C15.542 17.7207 15.3227 17.8 15.052 17.8Z" fill="white"/>
</g>
<defs>
<filter id="filter0_d_2152_8375" x="8" y="8" width="11.9756" height="17.8" filterUnits="userSpaceOnUse" color-interpolation-filters="sRGB">
<feFlood flood-opacity="0" result="BackgroundImageFix"/>
<feColorMatrix in="SourceAlpha" type="matrix" values="0 0 0 0 0 0 0 0 0 0 0 0 0 0 0 0 0 0 127 0" result="hardAlpha"/>
<feOffset dy="4"/>
<feGaussianBlur stdDeviation="2"/>
<feComposite in2="hardAlpha" operator="out"/>
<feColorMatrix type="matrix" values="0 0 0 0 0 0 0 0 0 0 0 0 0 0 0 0 0 0 0.5 0"/>
<feBlend mode="normal" in2="BackgroundImageFix" result="effect1_dropShadow_2152_8375"/>
<feBlend mode="normal" in="SourceGraphic" in2="effect1_dropShadow_2152_8375" result="shape"/>
</filter>
<linearGradient id="paint0_linear_2152_8375" x1="11" y1="18" x2="11" y2="30" gradientUnits="userSpaceOnUse">
<stop stop-color="#7B150E"/>
<stop offset="1" stop-color="#FD4C3F"/>
</linearGradient>
<linearGradient id="paint1_linear_2152_8375" x1="19" y1="18" x2="19" y2="30" gradientUnits="userSpaceOnUse">
<stop stop-color="#7B150E"/>
<stop offset="1" stop-color="#FD4C3F"/>
</linearGradient>
<linearGradient id="paint2_linear_2152_8375" x1="15.154" y1="1.46156" x2="15.154" y2="24.8465" gradientUnits="userSpaceOnUse">
<stop stop-color="#FFD600"/>
<stop offset="0.333333" stop-color="#FFEDAB"/>
<stop offset="0.605" stop-color="#502208"/>
<stop offset="1" stop-color="#D98B16"/>
</linearGradient>
<linearGradient id="paint3_linear_2152_8375" x1="15" y1="0" x2="15" y2="26" gradientUnits="userSpaceOnUse">
<stop stop-color="#703E03"/>
<stop offset="1" stop-color="#FFD748"/>
</linearGradient>
</defs>
</svg>
