<svg width="30" height="30" viewBox="0 0 30 30" fill="none" xmlns="http://www.w3.org/2000/svg">
<path d="M8 18H14V27.75L8 30V18Z" fill="url(#paint0_linear_2152_8377)"/>
<path d="M22 18H16V27.75L22 30V18Z" fill="url(#paint1_linear_2152_8377)"/>
<path d="M13.8566 0.551157C14.4418 -0.183719 15.5582 -0.183719 16.1434 0.551157L18.2791 3.23348C18.5928 3.62734 19.087 3.83207 19.5873 3.77532L22.9942 3.38884C23.9276 3.28296 24.717 4.07244 24.6112 5.00583L24.2247 8.41273C24.1679 8.91299 24.3727 9.40724 24.7665 9.72085L27.4488 11.8566C28.1837 12.4418 28.1837 13.5582 27.4488 14.1434L24.7665 16.2791C24.3727 16.5928 24.1679 17.087 24.2247 17.5873L24.6112 20.9942C24.717 21.9276 23.9276 22.717 22.9942 22.6112L19.5873 22.2247C19.087 22.1679 18.5928 22.3727 18.2791 22.7665L16.1434 25.4488C15.5582 26.1837 14.4418 26.1837 13.8566 25.4488L11.7209 22.7665C11.4072 22.3727 10.913 22.1679 10.4127 22.2247L7.00583 22.6112C6.07244 22.717 5.28296 21.9276 5.38884 20.9942L5.77532 17.5873C5.83207 17.087 5.62734 16.5928 5.23348 16.2791L2.55116 14.1434C1.81628 13.5582 1.81628 12.4418 2.55116 11.8566L5.23348 9.72085C5.62734 9.40724 5.83207 8.91299 5.77532 8.41273L5.38884 5.00583C5.28296 4.07244 6.07244 3.28296 7.00583 3.38884L10.4127 3.77532C10.913 3.83207 11.4072 3.62734 11.7209 3.23348L13.8566 0.551157Z" fill="url(#paint2_linear_2152_8377)"/>
<path fill-rule="evenodd" clip-rule="evenodd" d="M17.1358 4.14388L15 1.46156L12.8642 4.14388C12.237 4.93161 11.2485 5.34106 10.248 5.22757L6.84109 4.84109L7.22757 8.24799C7.34106 9.24851 6.93161 10.237 6.14388 10.8642L3.46156 13L6.14388 15.1358C6.93161 15.763 7.34106 16.7515 7.22757 17.752L6.84109 21.1589L10.248 20.7724C11.2485 20.6589 12.237 21.0684 12.8642 21.8561L15 24.5384L17.1358 21.8561C17.763 21.0684 18.7515 20.6589 19.752 20.7724L23.1589 21.1589L22.7724 17.752C22.6589 16.7515 23.0684 15.763 23.8561 15.1358L26.5384 13L23.8561 10.8642C23.0684 10.237 22.6589 9.24851 22.7724 8.24799L23.1589 4.84109L19.752 5.22757C18.7515 5.34106 17.763 4.93161 17.1358 4.14388ZM16.1434 0.551157C15.5582 -0.183719 14.4418 -0.183719 13.8566 0.551157L11.7209 3.23348C11.4072 3.62734 10.913 3.83207 10.4127 3.77532L7.00583 3.38884C6.07244 3.28296 5.28296 4.07244 5.38884 5.00583L5.77532 8.41273C5.83207 8.91299 5.62734 9.40724 5.23348 9.72085L2.55116 11.8566C1.81628 12.4418 1.81628 13.5582 2.55116 14.1434L5.23348 16.2791C5.62734 16.5928 5.83207 17.087 5.77532 17.5873L5.38884 20.9942C5.28296 21.9276 6.07244 22.717 7.00583 22.6112L10.4127 22.2247C10.913 22.1679 11.4072 22.3727 11.7209 22.7665L13.8566 25.4488C14.4418 26.1837 15.5582 26.1837 16.1434 25.4488L18.2791 22.7665C18.5928 22.3727 19.087 22.1679 19.5873 22.2247L22.9942 22.6112C23.9276 22.717 24.717 21.9276 24.6112 20.9942L24.2247 17.5873C24.1679 17.087 24.3727 16.5928 24.7665 16.2791L27.4488 14.1434C28.1837 13.5582 28.1837 12.4418 27.4488 11.8566L24.7665 9.72085C24.3727 9.40724 24.1679 8.91299 24.2247 8.41273L24.6112 5.00583C24.717 4.07244 23.9276 3.28296 22.9942 3.38884L19.5873 3.77532C19.087 3.83207 18.5928 3.62734 18.2791 3.23348L16.1434 0.551157Z" fill="url(#paint3_linear_2152_8377)"/>
<g filter="url(#filter0_d_2152_8377)">
<path d="M13.008 15.756C13.092 15.756 13.1807 15.77 13.274 15.798C13.3767 15.826 13.4887 15.882 13.61 15.966C13.7687 16.0873 13.9553 16.1947 14.17 16.288C14.394 16.3813 14.6507 16.428 14.94 16.428C15.2293 16.428 15.5 16.358 15.752 16.218C16.0133 16.0687 16.228 15.8633 16.396 15.602C16.564 15.3313 16.648 15.0093 16.648 14.636C16.648 14.2813 16.5733 13.9873 16.424 13.754C16.284 13.5207 16.0927 13.3433 15.85 13.222C15.6167 13.1007 15.3647 13.04 15.094 13.04C14.8887 13.04 14.716 13.0587 14.576 13.096C14.4453 13.1333 14.3147 13.1753 14.184 13.222C14.0627 13.2593 13.918 13.278 13.75 13.278C13.5353 13.278 13.3673 13.2033 13.246 13.054C13.134 12.9047 13.078 12.7273 13.078 12.522C13.078 12.3913 13.1013 12.2747 13.148 12.172C13.204 12.0693 13.2833 11.9573 13.386 11.836L15.85 9.218L16.228 9.54H12.784C12.56 9.54 12.3733 9.46533 12.224 9.316C12.0747 9.16667 12 8.98 12 8.756C12 8.54133 12.0747 8.364 12.224 8.224C12.3733 8.07467 12.56 8 12.784 8H17.068C17.3573 8 17.572 8.07933 17.712 8.238C17.8613 8.39667 17.936 8.59733 17.936 8.84C17.936 8.96133 17.9033 9.08267 17.838 9.204C17.7727 9.316 17.6933 9.41867 17.6 9.512L15.122 12.172L14.744 11.696C14.8467 11.6493 14.9867 11.6073 15.164 11.57C15.3507 11.5327 15.5047 11.514 15.626 11.514C16.1767 11.514 16.6527 11.6587 17.054 11.948C17.4647 12.228 17.7773 12.5967 17.992 13.054C18.216 13.502 18.328 13.9873 18.328 14.51C18.328 15.2007 18.174 15.798 17.866 16.302C17.558 16.806 17.124 17.1933 16.564 17.464C16.004 17.7347 15.3507 17.87 14.604 17.87C14.2587 17.87 13.918 17.828 13.582 17.744C13.246 17.66 12.9567 17.548 12.714 17.408C12.5087 17.296 12.3687 17.1747 12.294 17.044C12.2287 16.904 12.196 16.7733 12.196 16.652C12.196 16.4373 12.2707 16.2367 12.42 16.05C12.5787 15.854 12.7747 15.756 13.008 15.756Z" fill="white"/>
</g>
<defs>
<filter id="filter0_d_2152_8377" x="8" y="8" width="14.3281" height="17.87" filterUnits="userSpaceOnUse" color-interpolation-filters="sRGB">
<feFlood flood-opacity="0" result="BackgroundImageFix"/>
<feColorMatrix in="SourceAlpha" type="matrix" values="0 0 0 0 0 0 0 0 0 0 0 0 0 0 0 0 0 0 127 0" result="hardAlpha"/>
<feOffset dy="4"/>
<feGaussianBlur stdDeviation="2"/>
<feComposite in2="hardAlpha" operator="out"/>
<feColorMatrix type="matrix" values="0 0 0 0 0 0 0 0 0 0 0 0 0 0 0 0 0 0 0.5 0"/>
<feBlend mode="normal" in2="BackgroundImageFix" result="effect1_dropShadow_2152_8377"/>
<feBlend mode="normal" in="SourceGraphic" in2="effect1_dropShadow_2152_8377" result="shape"/>
</filter>
<linearGradient id="paint0_linear_2152_8377" x1="11" y1="18" x2="11" y2="30" gradientUnits="userSpaceOnUse">
<stop stop-color="#7B150E"/>
<stop offset="1" stop-color="#FD4C3F"/>
</linearGradient>
<linearGradient id="paint1_linear_2152_8377" x1="19" y1="18" x2="19" y2="30" gradientUnits="userSpaceOnUse">
<stop stop-color="#7B150E"/>
<stop offset="1" stop-color="#FD4C3F"/>
</linearGradient>
<linearGradient id="paint2_linear_2152_8377" x1="15.154" y1="1.46156" x2="15.154" y2="24.8465" gradientUnits="userSpaceOnUse">
<stop stop-color="#462D0F"/>
<stop offset="0.333333" stop-color="#D1B091"/>
<stop offset="0.605" stop-color="#824519"/>
<stop offset="1" stop-color="#392309"/>
</linearGradient>
<linearGradient id="paint3_linear_2152_8377" x1="15" y1="0" x2="15" y2="26" gradientUnits="userSpaceOnUse">
<stop stop-color="#3D2111"/>
<stop offset="1" stop-color="#FF996D"/>
</linearGradient>
</defs>
</svg>
