<svg width="30" height="30" viewBox="0 0 30 30" fill="none" xmlns="http://www.w3.org/2000/svg">
<path d="M8 18H14V27.75L8 30V18Z" fill="url(#paint0_linear_2152_8376)"/>
<path d="M22 18H16V27.75L22 30V18Z" fill="url(#paint1_linear_2152_8376)"/>
<path d="M13.8566 0.551157C14.4418 -0.183719 15.5582 -0.183719 16.1434 0.551157L18.2791 3.23348C18.5928 3.62734 19.087 3.83207 19.5873 3.77532L22.9942 3.38884C23.9276 3.28296 24.717 4.07244 24.6112 5.00583L24.2247 8.41273C24.1679 8.91299 24.3727 9.40724 24.7665 9.72085L27.4488 11.8566C28.1837 12.4418 28.1837 13.5582 27.4488 14.1434L24.7665 16.2791C24.3727 16.5928 24.1679 17.087 24.2247 17.5873L24.6112 20.9942C24.717 21.9276 23.9276 22.717 22.9942 22.6112L19.5873 22.2247C19.087 22.1679 18.5928 22.3727 18.2791 22.7665L16.1434 25.4488C15.5582 26.1837 14.4418 26.1837 13.8566 25.4488L11.7209 22.7665C11.4072 22.3727 10.913 22.1679 10.4127 22.2247L7.00583 22.6112C6.07244 22.717 5.28296 21.9276 5.38884 20.9942L5.77532 17.5873C5.83207 17.087 5.62734 16.5928 5.23348 16.2791L2.55116 14.1434C1.81628 13.5582 1.81628 12.4418 2.55116 11.8566L5.23348 9.72085C5.62734 9.40724 5.83207 8.91299 5.77532 8.41273L5.38884 5.00583C5.28296 4.07244 6.07244 3.28296 7.00583 3.38884L10.4127 3.77532C10.913 3.83207 11.4072 3.62734 11.7209 3.23348L13.8566 0.551157Z" fill="url(#paint2_linear_2152_8376)"/>
<path fill-rule="evenodd" clip-rule="evenodd" d="M17.1358 4.14388L15 1.46156L12.8642 4.14388C12.237 4.93161 11.2485 5.34106 10.248 5.22757L6.84109 4.84109L7.22757 8.24799C7.34106 9.24851 6.93161 10.237 6.14388 10.8642L3.46156 13L6.14388 15.1358C6.93161 15.763 7.34106 16.7515 7.22757 17.752L6.84109 21.1589L10.248 20.7724C11.2485 20.6589 12.237 21.0684 12.8642 21.8561L15 24.5384L17.1358 21.8561C17.763 21.0684 18.7515 20.6589 19.752 20.7724L23.1589 21.1589L22.7724 17.752C22.6589 16.7515 23.0684 15.763 23.8561 15.1358L26.5384 13L23.8561 10.8642C23.0684 10.237 22.6589 9.24851 22.7724 8.24799L23.1589 4.84109L19.752 5.22757C18.7515 5.34106 17.763 4.93161 17.1358 4.14388ZM16.1434 0.551157C15.5582 -0.183719 14.4418 -0.183719 13.8566 0.551157L11.7209 3.23348C11.4072 3.62734 10.913 3.83207 10.4127 3.77532L7.00583 3.38884C6.07244 3.28296 5.28296 4.07244 5.38884 5.00583L5.77532 8.41273C5.83207 8.91299 5.62734 9.40724 5.23348 9.72085L2.55116 11.8566C1.81628 12.4418 1.81628 13.5582 2.55116 14.1434L5.23348 16.2791C5.62734 16.5928 5.83207 17.087 5.77532 17.5873L5.38884 20.9942C5.28296 21.9276 6.07244 22.717 7.00583 22.6112L10.4127 22.2247C10.913 22.1679 11.4072 22.3727 11.7209 22.7665L13.8566 25.4488C14.4418 26.1837 15.5582 26.1837 16.1434 25.4488L18.2791 22.7665C18.5928 22.3727 19.087 22.1679 19.5873 22.2247L22.9942 22.6112C23.9276 22.717 24.717 21.9276 24.6112 20.9942L24.2247 17.5873C24.1679 17.087 24.3727 16.5928 24.7665 16.2791L27.4488 14.1434C28.1837 13.5582 28.1837 12.4418 27.4488 11.8566L24.7665 9.72085C24.3727 9.40724 24.1679 8.91299 24.2247 8.41273L24.6112 5.00583C24.717 4.07244 23.9276 3.28296 22.9942 3.38884L19.5873 3.77532C19.087 3.83207 18.5928 3.62734 18.2791 3.23348L16.1434 0.551157Z" fill="url(#paint3_linear_2152_8376)"/>
<g filter="url(#filter0_d_2152_8376)">
<path d="M17.642 16.4C17.866 16.4 18.0527 16.4747 18.202 16.624C18.3513 16.7733 18.426 16.96 18.426 17.184C18.426 17.3987 18.3513 17.5807 18.202 17.73C18.0527 17.87 17.866 17.94 17.642 17.94H12.882C12.6393 17.94 12.448 17.8653 12.308 17.716C12.168 17.5667 12.098 17.3753 12.098 17.142C12.098 16.9087 12.182 16.7033 12.35 16.526L15.402 13.264C15.7473 12.8907 16.018 12.508 16.214 12.116C16.4193 11.724 16.522 11.3833 16.522 11.094C16.522 10.6273 16.3867 10.254 16.116 9.974C15.8453 9.68467 15.486 9.54 15.038 9.54C14.8607 9.54 14.6787 9.582 14.492 9.666C14.3053 9.75 14.1233 9.86667 13.946 10.016C13.778 10.1653 13.6193 10.338 13.47 10.534C13.358 10.6833 13.246 10.7767 13.134 10.814C13.022 10.8513 12.9193 10.87 12.826 10.87C12.6207 10.87 12.4293 10.7953 12.252 10.646C12.084 10.4873 12 10.3053 12 10.1C12 9.94133 12.0513 9.78733 12.154 9.638C12.266 9.48867 12.4013 9.33467 12.56 9.176C12.7933 8.94267 13.0547 8.73733 13.344 8.56C13.6333 8.38267 13.932 8.24733 14.24 8.154C14.548 8.05133 14.8467 8 15.136 8C15.7613 8 16.3027 8.126 16.76 8.378C17.2267 8.62067 17.586 8.97067 17.838 9.428C18.09 9.876 18.216 10.408 18.216 11.024C18.216 11.5373 18.062 12.1113 17.754 12.746C17.4553 13.3713 17.0493 13.9593 16.536 14.51L14.646 16.526L14.492 16.4H17.642Z" fill="white"/>
</g>
<defs>
<filter id="filter0_d_2152_8376" x="8" y="8" width="14.4258" height="17.9399" filterUnits="userSpaceOnUse" color-interpolation-filters="sRGB">
<feFlood flood-opacity="0" result="BackgroundImageFix"/>
<feColorMatrix in="SourceAlpha" type="matrix" values="0 0 0 0 0 0 0 0 0 0 0 0 0 0 0 0 0 0 127 0" result="hardAlpha"/>
<feOffset dy="4"/>
<feGaussianBlur stdDeviation="2"/>
<feComposite in2="hardAlpha" operator="out"/>
<feColorMatrix type="matrix" values="0 0 0 0 0 0 0 0 0 0 0 0 0 0 0 0 0 0 0.5 0"/>
<feBlend mode="normal" in2="BackgroundImageFix" result="effect1_dropShadow_2152_8376"/>
<feBlend mode="normal" in="SourceGraphic" in2="effect1_dropShadow_2152_8376" result="shape"/>
</filter>
<linearGradient id="paint0_linear_2152_8376" x1="11" y1="18" x2="11" y2="30" gradientUnits="userSpaceOnUse">
<stop stop-color="#7B150E"/>
<stop offset="1" stop-color="#FD4C3F"/>
</linearGradient>
<linearGradient id="paint1_linear_2152_8376" x1="19" y1="18" x2="19" y2="30" gradientUnits="userSpaceOnUse">
<stop stop-color="#7B150E"/>
<stop offset="1" stop-color="#FD4C3F"/>
</linearGradient>
<linearGradient id="paint2_linear_2152_8376" x1="15.154" y1="1.46156" x2="15.154" y2="24.8465" gradientUnits="userSpaceOnUse">
<stop stop-color="#8C8C8C"/>
<stop offset="0.333333" stop-color="#D6D6D6"/>
<stop offset="0.605" stop-color="#676767"/>
<stop offset="1" stop-color="#0B2E47"/>
</linearGradient>
<linearGradient id="paint3_linear_2152_8376" x1="15" y1="0" x2="15" y2="26" gradientUnits="userSpaceOnUse">
<stop stop-color="#1E2035"/>
<stop offset="1" stop-color="#CACAC8"/>
</linearGradient>
</defs>
</svg>
