<svg width="40" height="40" viewBox="0 0 40 40" fill="none" xmlns="http://www.w3.org/2000/svg">
<rect width="40" height="40" rx="8" fill="url(#paint0_linear_2533_1228)"/>
<path d="M22.8767 10.344V13.1317H25.8967L22.8767 10.344Z" fill="url(#paint1_linear_2533_1228)"/>
<path d="M21.34 24.5646H16.4317C16.2674 24.5591 16.1118 24.495 15.9976 24.3857C15.8835 24.2765 15.8197 24.1306 15.8197 23.9788C15.8197 23.8271 15.8835 23.6812 15.9976 23.5719C16.1118 23.4627 16.2674 23.3986 16.4317 23.3931H21.205C21.214 22.8794 21.3134 22.3704 21.4992 21.8862H16.4317C16.2674 21.8807 16.1118 21.8165 15.9976 21.7073C15.8835 21.598 15.8197 21.4522 15.8197 21.3004C15.8197 21.1486 15.8835 21.0027 15.9976 20.8935C16.1118 20.7842 16.2674 20.7201 16.4317 20.7146H22.1667C22.6225 20.1218 23.2251 19.638 23.9243 19.3035C24.6235 18.969 25.3991 18.7935 26.1867 18.7915V14.2969H22.2417C22.1591 14.2962 22.0775 14.2805 22.0015 14.2506C21.9255 14.2208 21.8566 14.1774 21.7988 14.123C21.741 14.0685 21.6953 14.0041 21.6645 13.9334C21.6337 13.8626 21.6183 13.787 21.6192 13.7108V10H10.6192C10.453 10.0022 10.2945 10.0652 10.1785 10.175C10.0624 10.2849 9.99825 10.4327 10 10.5862V29.4138C9.99916 29.4901 10.0146 29.5657 10.0454 29.6365C10.0762 29.7072 10.1218 29.7716 10.1796 29.826C10.2375 29.8805 10.3063 29.9239 10.3823 29.9537C10.4583 29.9836 10.5399 29.9993 10.6225 30H25.5608C25.6434 29.9993 25.7251 29.9836 25.8011 29.9537C25.877 29.9239 25.9459 29.8805 26.0037 29.826C26.0616 29.7716 26.1072 29.7072 26.138 29.6365C26.1688 29.5657 26.1842 29.4901 26.1833 29.4138V28.1638C25.0548 28.1553 23.9625 27.7951 23.0835 27.1419C22.2044 26.4886 21.5901 25.5805 21.34 24.5646ZM16.4317 12.6785H19.75C19.9143 12.684 20.0699 12.7481 20.1841 12.8573C20.2982 12.9666 20.362 13.1124 20.362 13.2642C20.362 13.416 20.2982 13.5619 20.1841 13.6711C20.0699 13.7804 19.9143 13.8445 19.75 13.85H16.4317C16.2674 13.8445 16.1118 13.7804 15.9976 13.6711C15.8835 13.5619 15.8197 13.416 15.8197 13.2642C15.8197 13.1124 15.8835 12.9666 15.9976 12.8573C16.1118 12.7481 16.2674 12.684 16.4317 12.6785ZM16.4317 15.3569H22.6558C22.8202 15.3624 22.9758 15.4265 23.0899 15.5358C23.2041 15.645 23.2678 15.7909 23.2678 15.9427C23.2678 16.0945 23.2041 16.2403 23.0899 16.3496C22.9758 16.4588 22.8202 16.523 22.6558 16.5285H16.4317C16.2674 16.523 16.1118 16.4588 15.9976 16.3496C15.8835 16.2403 15.8197 16.0945 15.8197 15.9427C15.8197 15.7909 15.8835 15.645 15.9976 15.5358C16.1118 15.4265 16.2674 15.3624 16.4317 15.3569ZM16.4317 18.0354H22.6558C22.8202 18.0409 22.9758 18.105 23.0899 18.2143C23.2041 18.3235 23.2678 18.4694 23.2678 18.6212C23.2678 18.7729 23.2041 18.9188 23.0899 19.0281C22.9758 19.1373 22.8202 19.2014 22.6558 19.2069H16.4317C16.2674 19.2014 16.1118 19.1373 15.9976 19.0281C15.8835 18.9188 15.8197 18.7729 15.8197 18.6212C15.8197 18.4694 15.8835 18.3235 15.9976 18.2143C16.1118 18.105 16.2674 18.0409 16.4317 18.0354ZM13.9417 27.2431H13.1084C12.944 27.2376 12.7884 27.1735 12.6743 27.0642C12.5601 26.955 12.4964 26.8091 12.4964 26.6573C12.4964 26.5055 12.5601 26.3597 12.6743 26.2504C12.7884 26.1412 12.944 26.077 13.1084 26.0715H13.9417C14.106 26.077 14.2616 26.1412 14.3758 26.2504C14.4899 26.3597 14.5537 26.5055 14.5537 26.6573C14.5537 26.8091 14.4899 26.955 14.3758 27.0642C14.2616 27.1735 14.106 27.2376 13.9417 27.2431ZM13.9417 24.5646H13.1084C12.944 24.5591 12.7884 24.495 12.6743 24.3857C12.5601 24.2765 12.4964 24.1306 12.4964 23.9788C12.4964 23.8271 12.5601 23.6812 12.6743 23.5719C12.7884 23.4627 12.944 23.3986 13.1084 23.3931H13.9417C14.106 23.3986 14.2616 23.4627 14.3758 23.5719C14.4899 23.6812 14.5537 23.8271 14.5537 23.9788C14.5537 24.1306 14.4899 24.2765 14.3758 24.3857C14.2616 24.495 14.106 24.5591 13.9417 24.5646ZM13.9417 21.8862H13.1084C12.944 21.8807 12.7884 21.8165 12.6743 21.7073C12.5601 21.598 12.4964 21.4522 12.4964 21.3004C12.4964 21.1486 12.5601 21.0027 12.6743 20.8935C12.7884 20.7842 12.944 20.7201 13.1084 20.7146H13.9417C14.106 20.7201 14.2616 20.7842 14.3758 20.8935C14.4899 21.0027 14.5537 21.1486 14.5537 21.3004C14.5537 21.4522 14.4899 21.598 14.3758 21.7073C14.2616 21.8165 14.106 21.8807 13.9417 21.8862ZM13.9417 19.2077H13.1084C12.944 19.2022 12.7884 19.1381 12.6743 19.0288C12.5601 18.9196 12.4964 18.7737 12.4964 18.6219C12.4964 18.4701 12.5601 18.3243 12.6743 18.215C12.7884 18.1058 12.944 18.0417 13.1084 18.0362H13.9417C14.106 18.0417 14.2616 18.1058 14.3758 18.215C14.4899 18.3243 14.5537 18.4701 14.5537 18.6219C14.5537 18.7737 14.4899 18.9196 14.3758 19.0288C14.2616 19.1381 14.106 19.2022 13.9417 19.2077ZM13.9417 16.5292H13.1084C12.944 16.5237 12.7884 16.4596 12.6743 16.3504C12.5601 16.2411 12.4964 16.0952 12.4964 15.9435C12.4964 15.7917 12.5601 15.6458 12.6743 15.5366C12.7884 15.4273 12.944 15.3632 13.1084 15.3577H13.9417C14.106 15.3632 14.2616 15.4273 14.3758 15.5366C14.4899 15.6458 14.5537 15.7917 14.5537 15.9435C14.5537 16.0952 14.4899 16.2411 14.3758 16.3504C14.2616 16.4596 14.106 16.5237 13.9417 16.5292ZM13.9417 13.8508H13.1084C12.944 13.8453 12.7884 13.7812 12.6743 13.6719C12.5601 13.5626 12.4964 13.4168 12.4964 13.265C12.4964 13.1132 12.5601 12.9674 12.6743 12.8581C12.7884 12.7488 12.944 12.6847 13.1084 12.6792H13.9417C14.106 12.6847 14.2616 12.7488 14.3758 12.8581C14.4899 12.9674 14.5537 13.1132 14.5537 13.265C14.5537 13.4168 14.4899 13.5626 14.3758 13.6719C14.2616 13.7812 14.106 13.8453 13.9417 13.8508ZM19.3334 27.2431H16.4317C16.2674 27.2376 16.1118 27.1735 15.9976 27.0642C15.8835 26.955 15.8197 26.8091 15.8197 26.6573C15.8197 26.5055 15.8835 26.3597 15.9976 26.2504C16.1118 26.1412 16.2674 26.077 16.4317 26.0715H19.3334C19.4977 26.077 19.6533 26.1412 19.7674 26.2504C19.8816 26.3597 19.9454 26.5055 19.9454 26.6573C19.9454 26.8091 19.8816 26.955 19.7674 27.0642C19.6533 27.1735 19.4977 27.2376 19.3334 27.2431Z" fill="url(#paint2_linear_2533_1228)"/>
<path d="M26.1833 19.9893C25.4284 19.9893 24.6905 20.1959 24.0629 20.583C23.4352 20.9701 22.946 21.5203 22.6572 22.1641C22.3683 22.8079 22.2927 23.5162 22.44 24.1997C22.5872 24.8831 22.9507 25.5108 23.4845 26.0035C24.0183 26.4962 24.6983 26.8318 25.4387 26.9677C26.1791 27.1037 26.9465 27.0339 27.6439 26.7672C28.3413 26.5006 28.9373 26.049 29.3567 25.4697C29.7761 24.8903 30 24.2091 30 23.5123C30 22.5779 29.5978 21.6819 28.8821 21.0212C28.1663 20.3604 27.1955 19.9893 26.1833 19.9893ZM27.9825 23.097L26.1833 24.7585C26.064 24.8686 25.9023 24.9304 25.7337 24.9304C25.5651 24.9304 25.4034 24.8686 25.2841 24.7585L24.385 23.9285C24.2675 23.8181 24.2021 23.6693 24.2028 23.5146C24.2036 23.3599 24.2705 23.2117 24.3891 23.1023C24.5076 22.9928 24.6681 22.9311 24.8358 22.9304C25.0034 22.9296 25.1645 22.9901 25.2841 23.0985L25.7341 23.5139L27.0833 22.2685C27.1421 22.2132 27.2123 22.1692 27.2896 22.139C27.367 22.1089 27.4501 22.0931 27.5341 22.0928C27.6181 22.0924 27.7013 22.1074 27.779 22.1369C27.8566 22.1664 27.9272 22.2099 27.9866 22.2647C28.046 22.3195 28.093 22.3846 28.125 22.4563C28.1569 22.528 28.1732 22.6049 28.1728 22.6824C28.1724 22.7599 28.1554 22.8366 28.1227 22.908C28.0901 22.9794 28.0424 23.0442 27.9825 23.0985V23.097Z" fill="url(#paint3_linear_2533_1228)"/>
<defs>
<linearGradient id="paint0_linear_2533_1228" x1="20" y1="0" x2="20" y2="40" gradientUnits="userSpaceOnUse">
<stop stop-color="#F44336"/>
<stop offset="1" stop-color="#FF4E41"/>
</linearGradient>
<linearGradient id="paint1_linear_2533_1228" x1="24.3867" y1="10.344" x2="24.3867" y2="13.1317" gradientUnits="userSpaceOnUse">
<stop stop-color="#FFFEF1"/>
<stop offset="1" stop-color="#FFFEF1"/>
</linearGradient>
<linearGradient id="paint2_linear_2533_1228" x1="18.0933" y1="10" x2="18.0933" y2="30" gradientUnits="userSpaceOnUse">
<stop stop-color="#FFFEF1"/>
<stop offset="1" stop-color="#FFFEF1"/>
</linearGradient>
<linearGradient id="paint3_linear_2533_1228" x1="26.1833" y1="19.9893" x2="26.1833" y2="27.0354" gradientUnits="userSpaceOnUse">
<stop stop-color="#FFFEF1"/>
<stop offset="1" stop-color="#FFFEF1"/>
</linearGradient>
</defs>
</svg>
