<svg width="20" height="20" viewBox="0 0 20 20" fill="none" xmlns="http://www.w3.org/2000/svg">
<path d="M1.7733 13.1109C1.39311 10.6396 1.01292 8.16846 0.632733 5.69721C0.548421 5.14939 1.17173 4.77577 1.61511 5.10833C2.79961 5.99671 3.98405 6.88502 5.16855 7.77339C5.55855 8.06589 6.11417 7.97071 6.38455 7.56508L9.34286 3.12758C9.65548 2.65864 10.3445 2.65864 10.6571 3.12758L13.6154 7.56508C13.8858 7.97071 14.4414 8.06583 14.8314 7.77339C16.0159 6.88502 17.2004 5.99671 18.3849 5.10833C18.8282 4.77577 19.4515 5.14939 19.3673 5.69721C18.9871 8.16846 18.6069 10.6396 18.2267 13.1109H1.7733Z" fill="url(#paint0_linear_157_8149)"/>
<path d="M17.369 17.2241H2.63125C2.1575 17.2241 1.77344 16.8401 1.77344 16.3663V14.4819H18.2269V16.3663C18.2268 16.8401 17.8428 17.2241 17.369 17.2241Z" fill="url(#paint1_linear_157_8149)"/>
<defs>
<linearGradient id="paint0_linear_157_8149" x1="10" y1="2.77588" x2="10" y2="13.1109" gradientUnits="userSpaceOnUse">
<stop stop-color="#FFF8E0"/>
<stop offset="1" stop-color="#A5A5A5"/>
</linearGradient>
<linearGradient id="paint1_linear_157_8149" x1="10.0002" y1="14.4819" x2="10.0002" y2="17.2241" gradientUnits="userSpaceOnUse">
<stop stop-color="#FFF8E0"/>
<stop offset="1" stop-color="#A5A5A5"/>
</linearGradient>
</defs>
</svg>
