<svg width="32" height="32" viewBox="0 0 32 32" fill="none" xmlns="http://www.w3.org/2000/svg">
<rect width="32" height="32" rx="16" fill="#D92214"/>
<mask id="mask0_2533_5236" style="mask-type:alpha" maskUnits="userSpaceOnUse" x="4" y="4" width="24" height="24">
<rect x="4" y="4" width="24" height="24" fill="#D9D9D9"/>
</mask>
<g mask="url(#mask0_2533_5236)">
<path d="M16 16C14.9 16 13.9583 15.6083 13.175 14.825C12.3917 14.0417 12 13.1 12 12C12 10.9 12.3917 9.95833 13.175 9.175C13.9583 8.39167 14.9 8 16 8C17.1 8 18.0417 8.39167 18.825 9.175C19.6083 9.95833 20 10.9 20 12C20 13.1 19.6083 14.0417 18.825 14.825C18.0417 15.6083 17.1 16 16 16ZM8 22V21.2C8 20.6333 8.14583 20.1125 8.4375 19.6375C8.72917 19.1625 9.11667 18.8 9.6 18.55C10.6333 18.0333 11.6833 17.6458 12.75 17.3875C13.8167 17.1292 14.9 17 16 17C17.1 17 18.1833 17.1292 19.25 17.3875C20.3167 17.6458 21.3667 18.0333 22.4 18.55C22.8833 18.8 23.2708 19.1625 23.5625 19.6375C23.8542 20.1125 24 20.6333 24 21.2V22C24 22.55 23.8042 23.0208 23.4125 23.4125C23.0208 23.8042 22.55 24 22 24H10C9.45 24 8.97917 23.8042 8.5875 23.4125C8.19583 23.0208 8 22.55 8 22Z" fill="white"/>
</g>
</svg>
