<svg width="24" height="25" viewBox="0 0 24 25" fill="none" xmlns="http://www.w3.org/2000/svg">
<g clip-path="url(#clip0_111_11784)">
<path d="M12 24.75C18.3426 24.75 23.4844 19.3774 23.4844 12.75C23.4844 6.12258 18.3426 0.75 12 0.75C5.65735 0.75 0.515625 6.12258 0.515625 12.75C0.515625 19.3774 5.65735 24.75 12 24.75Z" fill="#E88102"/>
<path d="M12 23.4844C18.2779 23.4844 23.3672 18.3951 23.3672 12.1172C23.3672 5.83926 18.2779 0.75 12 0.75C5.72208 0.75 0.632812 5.83926 0.632812 12.1172C0.632812 18.3951 5.72208 23.4844 12 23.4844Z" fill="#FDD835"/>
<path opacity="0.5" d="M16.5375 1.69238L1.57496 16.6502C1.0734 15.5018 0.759338 14.2549 0.665588 12.9471L12.8297 0.77832C14.1375 0.876758 15.3843 1.19082 16.5375 1.69238Z" fill="white"/>
<path opacity="0.5" d="M21.9047 6.53906L6.42187 22.0219C5.45625 21.4781 4.58437 20.7984 3.82031 20.0062L19.8937 3.9375C20.6812 4.69687 21.3609 5.57344 21.9047 6.53906Z" fill="white"/>
<path opacity="0.5" d="M19.4297 3.51104L3.39849 19.5423C3.15005 19.2517 2.91099 18.947 2.69067 18.6329L18.5204 2.80322C18.8344 3.02354 19.1391 3.2626 19.4297 3.51104Z" fill="white"/>
<path opacity="0.5" d="M23.011 9.28106L9.16411 23.1279C8.74692 23.0201 8.33911 22.8889 7.94067 22.7389L22.6219 8.05762C22.7719 8.45605 22.9032 8.86387 23.011 9.28106Z" fill="white"/>
<path opacity="0.5" d="M23.3672 12.1172C23.3672 12.1969 23.3672 12.2719 23.3625 12.3516C23.2406 6.18281 18.2016 1.21875 12 1.21875C5.79844 1.21875 0.759375 6.18281 0.6375 12.3516C0.6375 12.2719 0.632812 12.1969 0.632812 12.1172C0.632812 5.84063 5.72344 0.75 12 0.75C18.2766 0.75 23.3672 5.84063 23.3672 12.1172Z" fill="white"/>
<path opacity="0.5" d="M21.2344 12.6094C21.2344 17.5266 17.2454 21.5156 12.3282 21.5156C9.56725 21.5156 7.09694 20.2547 5.461 18.2812C7.08756 20.0391 9.41256 21.1406 12.0001 21.1406C16.9172 21.1406 20.9063 17.1516 20.9063 12.2344C20.9063 10.0781 20.1422 8.10469 18.8672 6.5625C20.3344 8.15156 21.2344 10.275 21.2344 12.6094Z" fill="white"/>
<path d="M12 21.1406C16.9188 21.1406 20.9062 17.1532 20.9062 12.2344C20.9062 7.31559 16.9188 3.32812 12 3.32812C7.08121 3.32812 3.09375 7.31559 3.09375 12.2344C3.09375 17.1532 7.08121 21.1406 12 21.1406Z" fill="#F39E09"/>
<path d="M18.75 6.42188C17.1891 5.07656 15.1594 4.26562 12.9375 4.26562C8.02031 4.26562 4.03125 8.25469 4.03125 13.1719C4.03125 15.3938 4.84219 17.4234 6.1875 18.9844C4.29375 17.3484 3.09375 14.9344 3.09375 12.2344C3.09375 7.31719 7.08281 3.32812 12 3.32812C14.6953 3.32812 17.1141 4.52812 18.75 6.42188Z" fill="#E88102"/>
<path d="M11.4422 9.96563C11.2829 10.1484 11.1985 10.4016 11.1985 10.725C11.1985 11.0484 11.2922 11.3156 11.4797 11.5078C11.6672 11.7 11.9672 11.8828 12.3797 12.0609C12.7922 12.2344 13.1813 12.4172 13.5469 12.6047C13.9125 12.7922 14.2266 13.0078 14.4938 13.2469C14.761 13.4859 14.9672 13.7672 15.1172 14.0859C15.1735 14.2078 15.3422 14.4375 15.3422 14.4375C15.3422 14.4375 15.3422 15.2156 15.3422 15.2391C15.3422 15.9984 15.1032 16.6172 14.6204 17.0953C14.1375 17.5734 13.486 17.8547 12.6563 17.9344V19.2656H11.5969V17.9203C10.6313 17.8172 9.89067 17.4891 9.37036 16.9266C8.85474 16.3641 8.59692 15.6281 8.59692 14.7094V14.0062L10.8375 14.7094C10.8375 15.2156 10.95 15.6 11.175 15.8625C11.4 16.125 11.7188 16.2562 12.1313 16.2562C12.4313 16.2562 12.6704 16.1672 12.8438 15.9844C13.0172 15.8016 13.1016 15.5578 13.1016 15.2438C13.1016 14.8922 13.0172 14.6203 12.8438 14.4188C12.6704 14.2172 12.3657 14.0297 11.9344 13.8516C11.4985 13.6734 11.1 13.4953 10.7297 13.3125C10.3594 13.1297 10.0454 12.9187 9.77817 12.6797C9.51099 12.4406 9.30942 12.1641 9.16411 11.85C9.02349 11.5359 8.95317 11.1562 8.95317 10.7062V9.96094C8.95317 9.96094 9.37036 9.17812 9.71255 8.85469C10.2188 8.36719 10.8938 8.08594 11.7329 8.00625V6.60938H12.7922V8.03906C13.6032 8.16094 14.2407 8.49375 14.7047 9.04219C15.0235 9.41719 15.3985 10.425 15.3985 10.425V11.1281H13.1485C13.1485 10.6687 13.0594 10.3125 12.8813 10.0641C12.7032 9.81562 12.45 9.69375 12.1219 9.69375C11.8313 9.68906 11.6063 9.78281 11.4422 9.96563Z" fill="#DB6704"/>
<path d="M13.1017 14.5453C13.1017 14.1937 13.0173 13.9219 12.8438 13.7203C12.6704 13.5188 12.3657 13.3313 11.9345 13.1531C11.4985 12.975 11.1001 12.7969 10.7298 12.6141C10.3595 12.4313 10.0454 12.2203 9.77822 11.9813C9.51104 11.7422 9.30947 11.4656 9.16416 11.1516C9.02354 10.8375 8.95322 10.4531 8.95322 10.0078C8.95322 9.25781 9.20635 8.63906 9.7126 8.15625C10.2188 7.67344 10.8938 7.3875 11.7329 7.30781V5.90625H12.7923V7.33594C13.6032 7.45781 14.2407 7.79062 14.7048 8.33906C15.1688 8.8875 15.3985 9.58125 15.3985 10.425H13.1485C13.1485 9.96562 13.0595 9.60937 12.8813 9.36094C12.7032 9.1125 12.4501 8.99063 12.122 8.99063C11.8313 8.99063 11.6017 9.08437 11.4423 9.26719C11.2829 9.45 11.1985 9.70312 11.1985 10.0266C11.1985 10.35 11.2923 10.6172 11.4798 10.8094C11.6673 11.0016 11.9673 11.1844 12.3751 11.3625C12.7876 11.5359 13.1767 11.7188 13.5423 11.9062C13.9079 12.0938 14.222 12.3094 14.4892 12.5484C14.7563 12.7875 14.9626 13.0688 15.1126 13.3875C15.2626 13.7063 15.3376 14.0906 15.3376 14.5359C15.3376 15.2953 15.0985 15.9141 14.6157 16.3922C14.1329 16.8703 13.4813 17.1516 12.6517 17.2313V18.5625H11.5923V17.2172C10.6267 17.1141 9.88604 16.7859 9.36572 16.2234C8.8501 15.6609 8.59229 14.925 8.59229 14.0062H10.8329C10.8329 14.5125 10.9454 14.8969 11.1704 15.1594C11.3954 15.4219 11.7142 15.5531 12.1267 15.5531C12.4267 15.5531 12.6657 15.4641 12.8392 15.2812C13.0126 15.0984 13.1017 14.8594 13.1017 14.5453Z" fill="#FDD835"/>
<path opacity="0.5" d="M9.71255 8.15625C9.98442 7.89375 10.3079 7.69219 10.6782 7.54688L9.08911 9.14062C9.21099 8.76562 9.41724 8.44219 9.71255 8.15625Z" fill="white"/>
<path opacity="0.5" d="M12.3188 5.90625L11.7328 6.49219V5.90625H12.3188Z" fill="white"/>
<path opacity="0.5" d="M15.0984 13.3454L11.2687 17.1751C10.4625 17.0392 9.82969 16.7204 9.375 16.2282C9.07969 15.9048 8.86875 15.5251 8.74219 15.0892L9.82031 14.011H10.8422C10.8422 14.5173 10.9547 14.9017 11.1797 15.1642C11.4047 15.4267 11.7234 15.5579 12.1359 15.5579C12.4359 15.5579 12.675 15.4688 12.8484 15.286C13.0219 15.1032 13.1063 14.8595 13.1063 14.5454C13.1063 14.1938 13.0219 13.922 12.8484 13.7204C12.675 13.5188 12.3703 13.3313 11.9391 13.1532C11.6297 13.0267 11.3391 12.9001 11.0625 12.7688L12.45 11.3813C12.8391 11.5501 13.2047 11.7188 13.5516 11.897C13.9172 12.0845 14.2312 12.3001 14.4984 12.5392C14.7516 12.7735 14.9531 13.0407 15.0984 13.3454Z" fill="white"/>
<path opacity="0.5" d="M15.3984 10.4204H13.4062L15.0234 8.80322C15.2719 9.2626 15.3984 9.80166 15.3984 10.4204Z" fill="white"/>
<path opacity="0.5" d="M8.60156 14.0063H8.93438L8.61563 14.3251C8.60625 14.222 8.60156 14.1142 8.60156 14.0063Z" fill="white"/>
<path opacity="0.5" d="M11.4797 10.8047C11.5735 10.9032 11.6954 10.9969 11.8501 11.0907L10.4626 12.4782C10.2047 12.3329 9.97506 12.1688 9.77819 11.986C9.6985 11.9157 9.62819 11.8407 9.56256 11.7657L11.2079 10.1204C11.2219 10.4016 11.3157 10.6313 11.4797 10.8047Z" fill="white"/>
<path opacity="0.5" d="M14.6579 8.28271L13.0922 9.84834C13.05 9.65615 12.9797 9.49209 12.886 9.36084C12.7454 9.16396 12.5579 9.04678 12.3235 9.00459L13.725 7.60303C14.086 7.76709 14.3954 7.99209 14.6579 8.28271Z" fill="white"/>
<path opacity="0.5" d="M12.1125 18.5623L12.6563 18.0186V18.5623H12.1125Z" fill="white"/>
<path opacity="0.5" d="M15.1969 15.478C15.0797 15.8249 14.8875 16.1249 14.625 16.3874C14.3625 16.6499 14.0485 16.8515 13.6829 16.9921L15.1969 15.478Z" fill="white"/>
<path opacity="0.25" d="M19.4297 7.31719C13.6641 9.34219 9.03281 13.7906 6.76406 19.4391C6.56719 19.2938 6.375 19.1437 6.1875 18.9797C4.84219 17.4187 4.03125 15.3891 4.03125 13.1719C4.03125 8.25469 8.02031 4.26562 12.9375 4.26562C15.1594 4.26562 17.1891 5.07656 18.7453 6.42188C18.9937 6.70781 19.2187 7.00781 19.4297 7.31719Z" fill="white"/>
</g>
<path d="M7.5 4.74585C5.43342 4.74585 3.74585 6.43065 3.74585 8.5C3.74585 6.42512 2.07488 4.74585 0 4.74585C2.07488 4.74585 3.74585 3.08871 3.74585 1C3.74585 3.03892 5.39192 4.74585 7.5 4.74585Z" fill="white"/>
<path d="M10.5 3.24751C9.26005 3.24751 8.24751 4.25839 8.24751 5.5C8.24751 4.25507 7.24493 3.24751 6 3.24751C7.24493 3.24751 8.24751 2.25323 8.24751 1C8.24751 2.22335 9.23515 3.24751 10.5 3.24751Z" fill="white"/>
<defs>
<clipPath id="clip0_111_11784">
<rect width="24" height="24" fill="white" transform="translate(0 0.75)"/>
</clipPath>
</defs>
</svg>
