<svg width="40" height="40" viewBox="0 0 40 40" fill="none" xmlns="http://www.w3.org/2000/svg">
<rect width="40" height="40" rx="8" fill="url(#paint0_linear_2533_1473)"/>
<path d="M25.5557 12V10H14.4476V12H10V13C10.0225 14.8733 10.6747 16.6947 11.8676 18.2158C13.0606 19.7369 14.7364 20.8838 16.6664 21.5V23C16.6589 23.1347 16.6827 23.2694 16.7362 23.395C16.7896 23.5207 16.8716 23.6345 16.9766 23.729C17.0816 23.8235 17.2073 23.8966 17.3453 23.9433C17.4834 23.99 17.6306 24.0093 17.7775 24H18.8885V26H15.5553C15.2701 26.0161 15.0009 26.1262 14.7973 26.31C14.5938 26.4938 14.4696 26.7389 14.4476 27V30H25.5557V27C25.5337 26.7384 25.409 26.4929 25.2048 26.309C25.0005 26.1252 24.7305 26.0154 24.4447 26H21.1115V24H22.2225C22.3694 24.0093 22.5166 23.99 22.6547 23.9433C22.7927 23.8966 22.9184 23.8235 23.0234 23.729C23.1284 23.6345 23.2104 23.5207 23.2638 23.395C23.3173 23.2694 23.3411 23.1347 23.3336 23V21.5C25.2722 20.8962 26.9567 19.7525 28.1518 18.2286C29.347 16.7048 29.9931 14.8768 30 13V12H25.5557ZM14.4476 17.9C13.2965 16.847 12.5539 15.477 12.3337 14H14.4476V17.9ZM20.0029 17C19.5732 16.9927 19.1554 16.8693 18.8019 16.6451C18.4485 16.421 18.1751 16.1062 18.0161 15.7401C17.8571 15.3741 17.8196 14.9732 17.9083 14.5877C17.997 14.2022 18.2079 13.8493 18.5146 13.5733C18.8213 13.2972 19.2101 13.1104 19.6322 13.0362C20.0543 12.9619 20.4909 13.0036 20.8872 13.156C21.2836 13.3084 21.622 13.5647 21.86 13.8928C22.098 14.2208 22.225 14.606 22.2251 15C22.218 15.5352 21.98 16.0461 21.5631 16.4209C21.1462 16.7957 20.5843 17.0039 20.0004 17H20.0029ZM25.5583 17.9V14H27.6696C27.4494 15.477 26.7068 16.847 25.5557 17.9H25.5583Z" fill="white"/>
<defs>
<linearGradient id="paint0_linear_2533_1473" x1="20" y1="0" x2="20" y2="40" gradientUnits="userSpaceOnUse">
<stop stop-color="#F44336"/>
<stop offset="1" stop-color="#FF4E41"/>
</linearGradient>
</defs>
</svg>
